<svg width="62" height="61" viewBox="0 0 62 61" fill="none" xmlns="http://www.w3.org/2000/svg">
<path d="M28.9267 23.644C28.9267 21.633 26.2127 19.877 22.1657 18.909C26.2127 17.939 28.9267 16.185 28.9267 14.174C28.9267 11.116 22.6787 8.63998 14.9697 8.63998C7.26067 8.63998 1.01266 11.117 1.01266 14.174C1.01266 16.186 3.72667 17.94 7.77267 18.909C3.72667 19.878 1.01266 21.634 1.01266 23.644C1.01266 25.701 3.84768 27.492 8.04568 28.446C3.83568 29.399 0.992676 31.192 0.992676 33.252C0.992676 36.309 7.24068 38.786 14.9497 38.786C22.6587 38.786 28.9077 36.308 28.9077 33.252C28.9077 31.195 26.0727 29.405 21.8737 28.451C26.0827 27.496 28.9267 25.705 28.9267 23.644Z" fill="#04032E"/>
<path d="M29.901 13.518C29.901 9.91601 23.208 7 14.954 7C6.69201 7 0 9.91701 0 13.518C0 13.518 0 17.024 0 18.755C0 19.595 0.369016 20.404 1.04102 21.145C0.369016 21.885 0 22.688 0 23.535C0 23.535 0 27.042 0 28.773C0 29.62 0.369016 30.422 1.04102 31.163C0.369016 31.903 0 32.707 0 33.553C0 33.553 0 37.06 0 38.79C0 42.385 6.69201 45.308 14.954 45.308C23.208 45.308 29.901 42.384 29.901 38.79C29.901 37.298 29.901 33.553 29.901 33.553C29.901 32.707 29.532 31.904 28.86 31.163C29.532 30.423 29.901 29.62 29.901 28.773C29.901 27.281 29.901 23.535 29.901 23.535C29.901 22.688 29.532 21.886 28.86 21.145C29.532 20.405 29.901 19.595 29.901 18.755C29.901 17.262 29.901 13.518 29.901 13.518ZM14.954 8.88101C21.822 8.88101 26.678 11.021 27.782 12.789C27.938 13.04 28.019 13.285 28.019 13.518C28.019 14.835 25.353 16.641 20.956 17.563C19.206 17.927 17.186 18.153 14.953 18.153C12.714 18.153 10.693 17.927 8.94299 17.563C4.54599 16.641 1.88 14.835 1.88 13.518C1.88 13.329 1.93702 13.128 2.05002 12.921C2.98502 11.127 7.90301 8.88101 14.954 8.88101ZM28.02 33.552C28.02 35.397 22.808 38.187 14.955 38.187C7.09502 38.187 1.883 35.397 1.883 33.552C1.883 33.364 1.94001 33.164 2.05301 32.956C2.15301 32.762 2.297 32.566 2.492 32.366C5.171 34.129 9.74899 35.29 14.956 35.29C20.162 35.29 24.748 34.129 27.419 32.366C27.57 32.523 27.69 32.674 27.784 32.824C27.939 33.076 28.02 33.32 28.02 33.552ZM28.02 23.535C28.02 23.824 27.895 24.137 27.65 24.458C27.6 24.52 27.545 24.583 27.488 24.646C27.38 24.771 27.255 24.891 27.112 25.015C26.804 25.286 26.416 25.555 25.957 25.814C25.857 25.876 25.757 25.932 25.65 25.982C25.637 25.988 25.625 25.995 25.612 26.001C25.493 26.071 25.374 26.127 25.242 26.189C25.117 26.252 24.985 26.315 24.847 26.371C24.069 26.717 23.159 27.031 22.136 27.301C22.011 27.338 21.879 27.369 21.747 27.401C21.49 27.464 21.226 27.527 20.95 27.584H20.945C20.474 27.683 19.991 27.772 19.482 27.84C19.282 27.878 19.075 27.903 18.867 27.928C18.661 27.96 18.448 27.979 18.228 28.004C18.077 28.023 17.927 28.035 17.77 28.048C17.587 28.066 17.407 28.079 17.218 28.092C17.011 28.111 16.797 28.123 16.584 28.129C16.321 28.148 16.051 28.153 15.781 28.16C15.506 28.167 15.229 28.172 14.953 28.172C14.67 28.172 14.4 28.167 14.125 28.16C13.855 28.153 13.585 28.147 13.322 28.129C13.108 28.123 12.901 28.111 12.7 28.098C12.507 28.079 12.318 28.067 12.137 28.048C11.973 28.035 11.811 28.017 11.654 28.004C11.44 27.979 11.233 27.953 11.033 27.928C10.839 27.904 10.657 27.878 10.469 27.848C9.94299 27.772 9.441 27.683 8.957 27.584H8.95102C8.67502 27.527 8.41099 27.464 8.15399 27.401C8.02199 27.37 7.89001 27.338 7.76501 27.301C6.84901 27.062 6.027 26.78 5.306 26.478C5.123 26.404 4.949 26.322 4.784 26.247C4.672 26.197 4.565 26.147 4.465 26.091C4.39 26.053 4.32101 26.015 4.25201 25.977C4.08201 25.896 3.91901 25.802 3.76801 25.707C3.61201 25.62 3.468 25.525 3.336 25.432C2.929 25.157 2.60201 24.874 2.36301 24.592C2.28801 24.509 2.22399 24.422 2.16299 24.334C1.97499 24.058 1.88101 23.788 1.88101 23.537C1.88101 23.349 1.93799 23.148 2.05099 22.941C2.15099 22.747 2.29502 22.551 2.49002 22.351C5.16902 24.114 9.74701 25.274 14.954 25.274C20.16 25.274 24.746 24.114 27.417 22.351C27.568 22.508 27.688 22.659 27.782 22.809C27.939 23.058 28.02 23.302 28.02 23.535Z" fill="#B38534"/>
<path d="M60.3979 23.644C60.3979 21.633 57.6838 19.877 53.6378 18.909C57.6838 17.939 60.3979 16.185 60.3979 14.174C60.3979 11.116 54.1509 8.63998 46.4419 8.63998C38.7329 8.63998 32.4839 11.117 32.4839 14.174C32.4839 16.186 35.1978 17.94 39.2448 18.909C35.1978 19.878 32.4839 21.634 32.4839 23.644C32.4839 25.701 35.3189 27.492 39.5179 28.446C35.3079 29.399 32.4639 31.192 32.4639 33.252C32.4639 36.309 38.7139 38.786 46.4229 38.786C54.1319 38.786 60.3788 36.308 60.3788 33.252C60.3788 31.195 57.5449 29.405 53.3459 28.451C57.5559 27.496 60.3979 25.705 60.3979 23.644Z" fill="#04032E"/>
<path d="M61.3741 13.518C61.3741 9.91601 54.6822 7 46.4272 7C38.1652 7 31.4722 9.91701 31.4722 13.518C31.4722 13.518 31.4722 17.024 31.4722 18.755C31.4722 19.595 31.8422 20.404 32.5142 21.145C31.8422 21.885 31.4722 22.688 31.4722 23.535C31.4722 23.535 31.4722 27.042 31.4722 28.773C31.4722 29.62 31.8422 30.422 32.5142 31.163C31.8422 31.903 31.4722 32.707 31.4722 33.553C31.4722 33.553 31.4722 37.06 31.4722 38.79C31.4722 42.385 38.1652 45.308 46.4272 45.308C54.6822 45.308 61.3741 42.384 61.3741 38.79C61.3741 37.298 61.3741 33.553 61.3741 33.553C61.3741 32.707 61.0052 31.904 60.3322 31.163C61.0052 30.423 61.3741 29.62 61.3741 28.773C61.3741 27.281 61.3741 23.535 61.3741 23.535C61.3741 22.688 61.0052 21.886 60.3322 21.145C61.0052 20.405 61.3741 19.595 61.3741 18.755C61.3741 17.262 61.3741 13.518 61.3741 13.518ZM46.4272 8.88101C53.2952 8.88101 58.1502 11.021 59.2552 12.789C59.4102 13.04 59.4922 13.285 59.4922 13.518C59.4922 14.835 56.8272 16.641 52.4292 17.563C50.6792 17.927 48.6591 18.153 46.4261 18.153C44.1861 18.153 42.1662 17.927 40.4162 17.563C36.0202 16.641 33.3531 14.835 33.3531 13.518C33.3531 13.329 33.4102 13.128 33.5232 12.921C34.4582 11.127 39.3762 8.88101 46.4272 8.88101ZM59.4922 33.552C59.4922 35.397 54.2792 38.187 46.4272 38.187C38.5672 38.187 33.3542 35.397 33.3542 33.552C33.3542 33.364 33.4112 33.164 33.5242 32.956C33.6252 32.762 33.7682 32.566 33.9632 32.366C36.6412 34.129 41.2202 35.29 46.4272 35.29C51.6342 35.29 56.2182 34.129 58.8902 32.366C59.0412 32.523 59.1602 32.674 59.2552 32.824C59.4102 33.076 59.4922 33.32 59.4922 33.552ZM59.4922 23.535C59.4922 23.824 59.3682 24.137 59.1222 24.458C59.0722 24.52 59.0161 24.583 58.9601 24.646C58.8531 24.771 58.7282 24.891 58.5832 25.015C58.2762 25.286 57.8872 25.555 57.4292 25.814C57.3292 25.876 57.2282 25.932 57.1222 25.982C57.1092 25.988 57.0972 25.995 57.0842 26.001C56.9642 26.071 56.8462 26.127 56.7142 26.189C56.5882 26.252 56.4562 26.315 56.3192 26.371C55.5412 26.717 54.6312 27.031 53.6082 27.301C53.4832 27.338 53.3511 27.369 53.2191 27.401C52.9611 27.464 52.6982 27.527 52.4232 27.584H52.4162C51.9452 27.683 51.4622 27.772 50.9552 27.84C50.7542 27.878 50.5471 27.903 50.3401 27.928C50.1331 27.96 49.9192 27.979 49.7002 28.004C49.5502 28.023 49.3991 28.035 49.2411 28.048C49.0591 28.066 48.8782 28.079 48.6902 28.092C48.4832 28.111 48.2692 28.123 48.0562 28.129C47.7922 28.148 47.5232 28.153 47.2532 28.16C46.9782 28.167 46.7002 28.172 46.4252 28.172C46.1432 28.172 45.8722 28.167 45.5972 28.16C45.3262 28.153 45.0582 28.147 44.7942 28.129C44.5802 28.123 44.3731 28.111 44.1721 28.098C43.9791 28.079 43.7902 28.067 43.6082 28.048C43.4442 28.035 43.2822 28.017 43.1252 28.004C42.9122 27.979 42.7042 27.953 42.5042 27.928C42.3102 27.904 42.1282 27.878 41.9402 27.848C41.4142 27.772 40.9112 27.683 40.4282 27.584H40.4212C40.1462 27.527 39.8822 27.464 39.6252 27.401C39.4932 27.37 39.3612 27.338 39.2352 27.301C38.3202 27.062 37.4982 26.78 36.7762 26.478C36.5952 26.404 36.4202 26.322 36.2562 26.247C36.1442 26.197 36.0372 26.147 35.9372 26.091C35.8622 26.053 35.7921 26.015 35.7231 25.977C35.5531 25.896 35.3912 25.802 35.2402 25.707C35.0822 25.62 34.9392 25.525 34.8072 25.432C34.4002 25.157 34.0732 24.874 33.8342 24.592C33.7602 24.509 33.6961 24.422 33.6331 24.334C33.4451 24.058 33.3512 23.788 33.3512 23.537C33.3512 23.349 33.4081 23.148 33.5211 22.941C33.6221 22.747 33.7651 22.551 33.9601 22.351C36.6381 24.114 41.2172 25.274 46.4242 25.274C51.6312 25.274 56.2151 24.114 58.8871 22.351C59.0381 22.508 59.1572 22.659 59.2522 22.809C59.4102 23.058 59.4922 23.302 59.4922 23.535Z" fill="#906521"/>
<path d="M42.8852 34.101C42.8852 32.09 40.1702 30.334 36.1242 29.366C40.1702 28.396 42.8852 26.641 42.8852 24.631C42.8852 21.573 36.6362 19.097 28.9272 19.097C21.2192 19.097 14.9702 21.574 14.9702 24.631C14.9702 26.642 17.6842 28.397 21.7312 29.366C17.6842 30.335 14.9702 32.091 14.9702 34.101C14.9702 36.158 17.8052 37.949 22.0042 38.903C17.7942 39.856 14.9502 41.649 14.9502 43.71C14.9502 46.766 21.1992 49.244 28.9082 49.244C36.6172 49.244 42.8652 46.766 42.8652 43.71C42.8652 41.652 40.0312 39.862 35.8322 38.908C40.0412 37.954 42.8852 36.161 42.8852 34.101Z" fill="#04032E"/>
<path d="M43.859 23.974C43.859 20.373 37.167 17.456 28.912 17.456C20.65 17.456 13.957 20.373 13.957 23.974C13.957 23.974 13.957 27.481 13.957 29.212C13.957 30.052 14.327 30.861 14.999 31.602C14.327 32.342 13.957 33.145 13.957 33.992C13.957 33.992 13.957 37.499 13.957 39.23C13.957 40.077 14.327 40.878 14.999 41.62C14.327 42.36 13.957 43.164 13.957 44.01C13.957 44.01 13.957 47.516 13.957 49.248C13.957 52.842 20.65 55.765 28.912 55.765C37.167 55.765 43.859 52.842 43.859 49.248C43.859 47.755 43.859 44.01 43.859 44.01C43.859 43.164 43.489 42.361 42.818 41.62C43.489 40.879 43.859 40.077 43.859 39.23C43.859 37.737 43.859 33.992 43.859 33.992C43.859 33.145 43.489 32.343 42.818 31.602C43.489 30.862 43.859 30.052 43.859 29.212C43.859 27.719 43.859 23.974 43.859 23.974ZM28.912 19.338C35.78 19.338 40.635 21.477 41.739 23.246C41.895 23.497 41.978 23.742 41.978 23.974C41.978 25.291 39.312 27.097 34.914 28.02C33.164 28.384 31.144 28.61 28.911 28.61C26.671 28.61 24.65 28.384 22.901 28.02C18.503 27.097 15.837 25.291 15.837 23.974C15.837 23.785 15.894 23.585 16.007 23.378C16.943 21.584 21.861 19.338 28.912 19.338ZM41.979 44.009C41.979 45.854 36.765 48.644 28.913 48.644C21.053 48.644 15.84 45.854 15.84 44.009C15.84 43.821 15.897 43.62 16.01 43.413C16.111 43.219 16.254 43.023 16.45 42.823C19.128 44.586 23.707 45.746 28.914 45.746C34.121 45.746 38.705 44.586 41.377 42.823C41.528 42.98 41.648 43.13 41.741 43.28C41.896 43.533 41.979 43.777 41.979 44.009ZM41.979 33.992C41.979 34.28 41.853 34.595 41.608 34.914C41.558 34.978 41.502 35.04 41.446 35.103C41.338 35.228 41.213 35.348 41.069 35.473C40.761 35.743 40.373 36.013 39.915 36.27C39.815 36.333 39.714 36.389 39.608 36.439C39.595 36.446 39.583 36.452 39.57 36.458C39.451 36.528 39.332 36.584 39.2 36.646C39.074 36.709 38.942 36.772 38.805 36.829C38.027 37.174 37.117 37.488 36.095 37.757C35.968 37.794 35.837 37.826 35.705 37.858C35.447 37.921 35.183 37.983 34.909 38.04H34.902C34.431 38.14 33.949 38.228 33.441 38.298C33.24 38.335 33.033 38.359 32.826 38.385C32.619 38.416 32.406 38.435 32.186 38.461C32.036 38.48 31.885 38.492 31.728 38.505C31.545 38.523 31.364 38.536 31.175 38.548C30.968 38.568 30.755 38.58 30.542 38.586C30.278 38.605 30.008 38.611 29.739 38.618C29.463 38.623 29.186 38.63 28.911 38.63C28.629 38.63 28.358 38.623 28.083 38.618C27.812 38.61 27.543 38.604 27.28 38.586C27.066 38.58 26.859 38.568 26.659 38.555C26.465 38.536 26.276 38.524 26.095 38.505C25.931 38.492 25.769 38.473 25.611 38.461C25.399 38.435 25.192 38.41 24.991 38.385C24.797 38.36 24.614 38.335 24.426 38.304C23.899 38.229 23.397 38.14 22.914 38.04H22.9081C22.6321 37.983 22.368 37.921 22.111 37.858C21.979 37.827 21.847 37.794 21.721 37.757C20.806 37.519 19.985 37.236 19.262 36.935C19.081 36.861 18.906 36.779 18.741 36.704C18.629 36.654 18.521 36.604 18.422 36.548C18.347 36.51 18.277 36.473 18.208 36.435C18.038 36.353 17.876 36.259 17.726 36.164C17.568 36.077 17.425 35.982 17.293 35.889C16.885 35.613 16.559 35.33 16.32 35.049C16.245 34.967 16.182 34.879 16.119 34.791C15.931 34.515 15.837 34.244 15.837 33.994C15.837 33.806 15.894 33.605 16.007 33.398C16.108 33.204 16.2511 33.008 16.4471 32.809C19.1251 34.572 23.704 35.731 28.911 35.731C34.118 35.731 38.702 34.572 41.374 32.809C41.525 32.964 41.645 33.116 41.738 33.265C41.896 33.515 41.979 33.759 41.979 33.992Z" fill="#F9CE69"/>
</svg>
