<svg width="61" height="61" viewBox="0 0 61 61" fill="none" xmlns="http://www.w3.org/2000/svg">
<path d="M59.319 8H1.68332C0.753913 8 0 8.75392 0 9.68332V44.2583C0 45.1865 0.752759 45.9404 1.68332 45.9404H24.751V48.6882H13.1629C12.4032 48.6882 11.789 49.3013 11.789 50.0621V51.092C11.789 51.8493 12.4032 52.4647 13.1629 52.4647H47.8394C48.5991 52.4647 49.2133 51.8505 49.2133 51.092V50.0621C49.2133 49.3024 48.5991 48.6882 47.8394 48.6882H36.2513V45.9404H59.3178C60.2472 45.9404 61 45.1865 61 44.2583V9.68332C61.0012 8.75392 60.2484 8 59.319 8Z" fill="#B38534"/>
<path d="M57.4085 10.9083H3.771V42.5634H57.4085V10.9083Z" fill="#04032E"/>
<g clip-path="url(#clip0_86_815)">
<path d="M26.0398 28.7269C28.4308 28.7271 30.3689 30.666 30.3689 33.057C30.3688 36.4045 27.6549 39.1185 24.3074 39.1185C22.0601 39.1184 20.0992 37.8945 19.0535 36.0814C18.8939 35.8046 18.9003 35.462 19.0691 35.1908C19.238 34.9197 19.5424 34.7634 19.8611 34.7845C19.8999 34.7871 19.9391 34.7884 19.9783 34.7884C20.9346 34.7883 21.7096 34.0133 21.7097 33.057C21.7097 30.6658 23.6486 28.7269 26.0398 28.7269ZM29.5193 24.3343C31.9057 25.2873 33.8074 27.1902 34.7605 29.5765C34.0232 30.1189 33.2516 30.6178 32.447 31.0648L31.866 31.3871C31.2925 29.3821 29.7137 27.8032 27.7087 27.2298L28.031 26.6497C28.4783 25.8447 28.9765 25.072 29.5193 24.3343ZM42.0281 14.8724C43.2403 14.8725 44.2232 15.8555 44.2234 17.0677C44.2234 17.501 44.0955 17.925 43.8552 18.2855L39.946 24.1497C38.9305 25.673 37.7272 27.0533 36.3728 28.266C35.2397 25.8259 33.2699 23.855 30.8298 22.722C32.0425 21.368 33.424 20.166 34.947 19.1507L40.8103 15.2415C41.1708 15.0013 41.5949 14.8725 42.0281 14.8724Z" fill="#F9CE69"/>
</g>
<defs>
<clipPath id="clip0_86_815">
<rect width="27.7089" height="27.7089" fill="white" transform="translate(18.2466 13.141)"/>
</clipPath>
</defs>
</svg>
