<svg width="61" height="61" viewBox="0 0 61 61" fill="none" xmlns="http://www.w3.org/2000/svg">
<path d="M55.7706 42.0408C55.7706 42.8108 55.1451 43.4353 54.3742 43.4353H6.6215C5.85252 43.4353 5.22705 42.8118 5.22705 42.0408V13.3935C5.22705 12.6245 5.85155 12 6.6215 12H54.3742C55.1451 12 55.7706 12.6245 55.7706 13.3935V42.0408Z" fill="#B38534"/>
<path d="M52.3415 15.6636H8.30762V40.9936H52.3415V15.6636Z" fill="#04032E"/>
<path d="M61 49.4543C61 50.2253 60.3736 50.8497 59.6056 50.8497H1.39348C0.624498 50.8497 0 50.2253 0 49.4543V46.6674C0 45.8974 0.624498 45.2719 1.39348 45.2719H59.6046C60.3736 45.2719 60.999 45.8984 60.999 46.6674L61 49.4543Z" fill="#B38534"/>
<path d="M48.8243 37.4706C48.8243 38.3666 48.097 39.0939 47.2 39.0939H14.7756C13.8787 39.0939 13.1514 38.3666 13.1514 37.4706V19.7539C13.1514 18.8569 13.8787 18.1306 14.7756 18.1306H47.2C48.098 18.1306 48.8243 18.8569 48.8243 19.7539V37.4706Z" fill="#F9CE69"/>
<path d="M48.8243 19.5483C48.8243 20.3328 48.1882 20.9679 47.4056 20.9679H14.5701C13.7875 20.9679 13.1514 20.3318 13.1514 19.5483C13.1514 18.7657 13.7875 18.1306 14.5701 18.1306H47.4056C48.1882 18.1306 48.8243 18.7657 48.8243 19.5483Z" fill="#D6A84C"/>
</svg>
