<svg width="186" height="29" viewBox="0 0 186 29" fill="none" xmlns="http://www.w3.org/2000/svg">
<path d="M6.15306 6.00514C5.98553 7.25428 6.14026 8.5419 6.85571 9.52161C7.2687 10.0873 7.82826 10.5281 8.40993 10.9095C8.78802 11.158 9.18355 11.3737 9.56745 11.6175L9.29291 11.565C9.33711 11.5673 9.34991 11.5708 9.37434 11.5732C9.83037 11.6187 10.298 11.7656 10.6307 12.105C10.9658 12.4316 11.124 12.9074 11.1449 13.3635C11.1938 13.7425 11.4288 14.1951 11.694 14.447C12.214 14.9882 12.8295 14.6371 13.3553 14.335C13.8171 14.0446 14.3255 13.7332 14.5465 13.2585C14.55 13.2527 14.55 13.2503 14.55 13.2503C14.5524 13.2468 14.55 13.2585 14.55 13.2585C14.55 13.2632 14.55 13.2608 14.5477 13.276C14.5349 13.3168 14.5698 13.5524 14.5756 13.6049C14.1452 11.6875 12.6096 4.73268 14.0475 3.4264L14.2243 4.51575C14.0207 4.35246 13.7927 4.18568 13.5693 4.02706C12.8865 3.56403 12.1954 3.06834 11.3869 2.85723C12.2466 2.72894 13.1296 2.92488 13.973 3.08933C14.2592 3.15231 14.5361 3.2153 14.8316 3.29811L15.0084 4.38745C15.0491 4.35363 15.0375 4.36762 15.0317 4.41194C14.9444 4.98344 15.0317 5.58877 15.1026 6.18709C15.3783 8.11619 15.8332 10.0546 16.2892 11.9569C16.3067 12.0199 16.5998 13.2049 16.608 13.234C16.6057 13.2993 16.6045 13.4719 16.5963 13.5046C16.4021 14.8261 15.1852 15.7428 14.1021 16.3049C11.7952 17.5762 9.64191 15.9655 9.53488 13.4824C9.53255 13.395 9.54419 13.2772 9.5407 13.1932C9.5407 13.1127 9.4104 13.0532 9.32897 13.0392C9.31268 13.0381 9.29756 13.0346 9.28476 13.0392C9.28476 13.0392 9.27313 13.0416 9.29291 13.0439L9.01952 12.9914C7.5828 12.6404 6.1961 11.614 5.59 10.2179C4.97343 8.81832 5.1933 7.1598 6.15189 6.00631L6.15306 6.00514Z" fill="#4741A6"/>
<path d="M14.8199 2.33127C12.0058 1.0938 9.30336 0.785892 6.47645 2.1225C3.45293 3.54308 1.51946 7.1027 2.01039 10.4162C2.39894 13.304 4.70352 15.4734 7.18492 16.7715C7.51298 16.9605 8.01438 17.1739 8.3564 17.3442C9.62444 17.9448 10.8436 18.6271 11.9802 19.4727C13.4786 20.6111 15.013 22.1424 15.2655 24.1124C15.3865 25.1002 15.0689 26.1196 14.4127 26.7646C14.8222 25.9855 14.8699 25.0653 14.5942 24.2558C14.0184 22.6533 12.5479 21.6048 11.131 20.7452C10.0072 20.0827 8.81708 19.5334 7.6107 19.0365C6.73238 18.6831 5.87616 18.2761 5.06066 17.7886C0.895912 15.33 -1.14342 10.8886 0.657427 6.23029C2.13603 2.3581 5.93898 -0.389763 10.1398 0.0452757C11.8825 0.258713 13.6775 0.950343 14.8199 2.33127Z" fill="#4741A6"/>
<path d="M15.9216 4.98461C15.9216 4.98461 15.7064 6.46351 16.1368 7.40473C16.1368 7.40473 16.7895 7.40473 17.3223 7.00118C17.3223 7.00118 17.3223 5.25403 17.1071 4.85048C17.1071 4.85048 16.245 4.58106 15.9216 4.98461Z" fill="#4741A6"/>
<path d="M18.047 4.71519C18.047 4.71519 17.8725 5.85935 18.2215 6.5883C18.2215 6.5883 18.7509 6.5883 19.1825 6.27573C19.1825 6.27573 19.1825 4.92279 19.008 4.61138C19.008 4.61138 18.3088 4.40378 18.047 4.71519Z" fill="#4741A6"/>
<path d="M19.9945 4.49129C19.9945 4.49129 19.8514 5.34504 20.1375 5.88855C20.1375 5.88855 20.5726 5.88855 20.9275 5.65528C20.9275 5.65528 20.9275 4.64641 20.7844 4.41431C20.7844 4.41431 20.2097 4.25919 19.9945 4.49246V4.49129Z" fill="#4741A6"/>
<path d="M21.5975 4.30814C21.5975 4.30814 21.4684 4.91696 21.7267 5.30535C21.7267 5.30535 22.1187 5.30535 22.4398 5.13973C22.4398 5.13973 22.4398 4.42011 22.3107 4.25332C22.3107 4.25332 21.7918 4.14252 21.5975 4.30814Z" fill="#4741A6"/>
<path d="M23.182 4.12622C23.182 4.12622 23.1204 4.46562 23.2972 4.68722C23.4728 4.90882 24.8828 4.02359 24.8828 4.02359C24.8828 4.02359 23.7718 4.00959 23.182 4.12739V4.12622Z" fill="#4741A6"/>
<path d="M11.8534 22.8002C13.3821 23.633 14.087 25.6973 12.8713 27.1156C11.9895 28.1245 10.5993 28.444 9.34294 28.5747C6.97555 28.7858 4.36153 28.451 2.39432 27.013C1.3287 26.2082 0.779608 24.8051 0.833122 23.4942C0.885472 22.4923 1.25541 21.5616 1.73238 20.7008C1.35779 21.8461 1.16118 23.1769 1.69399 24.2884C2.02089 24.9719 2.63281 25.4046 3.25519 25.7813C5.23868 26.9733 7.79687 26.9115 10.0188 26.5989C10.6331 26.4858 11.3195 26.3027 11.7115 25.8711C12.3106 25.0769 11.9465 23.7717 11.8534 22.8002Z" fill="#F9CE69"/>
<path d="M30.6959 14.3592V0.242009H37.1585C38.703 0.242009 40.0646 0.537798 41.2433 1.12938C42.422 1.70751 43.3432 2.52093 44.0071 3.56964C44.671 4.61835 45.0029 5.86201 45.0029 7.30062C45.0029 8.72579 44.671 9.96945 44.0071 11.0316C43.3432 12.0803 42.422 12.9005 41.2433 13.492C40.0646 14.0702 38.703 14.3592 37.1585 14.3592H30.6959ZM33.9882 11.677H36.9959C37.9442 11.677 38.7639 11.5022 39.4549 11.1526C40.1594 10.7896 40.7013 10.2787 41.0807 9.61988C41.4736 8.96108 41.67 8.18799 41.67 7.30062C41.67 6.39981 41.4736 5.62672 41.0807 4.98136C40.7013 4.32256 40.1594 3.81837 39.4549 3.4688C38.7639 3.10579 37.9442 2.92428 36.9959 2.92428H33.9882V11.677Z" fill="#F9CE69"/>
<path d="M64.2076 5.92923H71.0563V8.47033H64.2076V5.92923ZM64.4515 11.7375H72.1943V14.3592H61.1796V0.242009H71.9301V2.86378H64.4515V11.7375Z" fill="#F9CE69"/>
<path d="M93.7971 14.6012C92.659 14.6012 91.5684 14.4533 90.5252 14.1576C89.482 13.8483 88.642 13.4517 88.0052 12.9677L89.1229 10.5072C89.7326 10.9375 90.4507 11.2938 91.2771 11.5761C92.1171 11.845 92.9639 11.9795 93.8174 11.9795C94.4677 11.9795 94.9893 11.919 95.3822 11.798C95.7887 11.6635 96.0867 11.482 96.2764 11.2534C96.4661 11.0249 96.5609 10.7627 96.5609 10.4669C96.5609 10.0905 96.4119 9.79466 96.1138 9.57954C95.8158 9.35098 95.4229 9.16947 94.9351 9.03502C94.4474 8.88713 93.9055 8.75268 93.3093 8.63167C92.7268 8.49722 92.1374 8.33588 91.5413 8.14765C90.9587 7.95942 90.4236 7.71741 89.9358 7.42162C89.4481 7.12584 89.0484 6.73593 88.7368 6.25191C88.4387 5.76789 88.2897 5.14942 88.2897 4.39651C88.2897 3.58981 88.5065 2.85706 88.94 2.19825C89.3871 1.526 90.051 0.994927 90.9316 0.605023C91.8258 0.201674 92.9435 0 94.2848 0C95.179 0 96.0596 0.10756 96.9267 0.322679C97.7938 0.524353 98.5593 0.833588 99.2232 1.25038L98.2071 3.73098C97.5432 3.35452 96.8793 3.0789 96.2155 2.90411C95.5516 2.71588 94.9013 2.62177 94.2645 2.62177C93.6277 2.62177 93.1061 2.69572 92.6997 2.84361C92.2932 2.99151 92.0019 3.18646 91.8258 3.42847C91.6497 3.65703 91.5616 3.92593 91.5616 4.23517C91.5616 4.59818 91.7106 4.89397 92.0087 5.12253C92.3068 5.33765 92.6997 5.51244 93.1874 5.64689C93.6751 5.78134 94.2103 5.91579 94.7929 6.05024C95.389 6.18469 95.9784 6.3393 96.5609 6.51409C97.1571 6.68887 97.699 6.92416 98.1867 7.21995C98.6745 7.51574 99.0674 7.90564 99.3654 8.38966C99.677 8.87368 99.8328 9.48543 99.8328 10.2249C99.8328 11.0182 99.6093 11.7442 99.1622 12.403C98.7151 13.0618 98.0445 13.5929 97.1503 13.9962C96.2696 14.3996 95.1519 14.6012 93.7971 14.6012Z" fill="#F9CE69"/>
<path d="M123.82 0.0739476L129.957 14.1912H126.401L121.036 1.68734H123.129L117.683 14.1912H114.411L120.569 0.0739476H123.82Z" fill="#F9CE69"/>
<path d="M148.546 14.3592V8.59134L149.298 10.5677L143.038 0.242009H146.534L151.33 8.16782H149.318L154.134 0.242009H157.366L151.106 10.5677L151.838 8.59134V14.3592H148.546Z" fill="#F9CE69"/>
<path d="M172.953 14.3592V0.242009H175.676L184.069 10.4064H182.748V0.242009H186V14.3592H183.297L174.884 4.19483H176.205V14.3592H172.953Z" fill="#F9CE69"/>
<path d="M33.6812 28.8414C32.7043 28.8414 31.9362 28.5618 31.3769 28.0025C30.8176 27.4433 30.538 26.6256 30.538 25.5495V21.3231H31.5999V25.507C31.5999 26.3353 31.7804 26.9406 32.1415 27.3229C32.5096 27.7052 33.0264 27.8963 33.6919 27.8963C34.3644 27.8963 34.8812 27.7052 35.2422 27.3229C35.6104 26.9406 35.7944 26.3353 35.7944 25.507V21.3231H36.8245V25.5495C36.8245 26.6256 36.5449 27.4433 35.9856 28.0025C35.4334 28.5618 34.6653 28.8414 33.6812 28.8414Z" fill="#F9CE69" fill-opacity="0.4"/>
<path d="M41.6563 28.7565V21.3231H42.7182V28.7565H41.6563Z" fill="#F9CE69" fill-opacity="0.4"/>
<path d="M50.678 28.8414C49.701 28.8414 48.9329 28.5618 48.3737 28.0025C47.8144 27.4433 47.5347 26.6256 47.5347 25.5495V21.3231H48.5967V25.507C48.5967 26.3353 48.7772 26.9406 49.1382 27.3229C49.5064 27.7052 50.0232 27.8963 50.6886 27.8963C51.3612 27.8963 51.878 27.7052 52.239 27.3229C52.6071 26.9406 52.7912 26.3353 52.7912 25.507V21.3231H53.8212V25.5495C53.8212 26.6256 53.5416 27.4433 52.9823 28.0025C52.4301 28.5618 51.662 28.8414 50.678 28.8414Z" fill="#F9CE69" fill-opacity="0.4"/>
<path d="M57.5724 28.7565L60.6626 24.5407V25.3584L57.7423 21.3231H58.9529L61.2679 24.4982L60.79 24.5089L63.0944 21.3231H64.2518L61.3528 25.2947V24.5301L64.443 28.7565H63.2218L60.7582 25.369H61.2254L58.7936 28.7565H57.5724Z" fill="#F9CE69" fill-opacity="0.4"/>
<path d="M78.6 24.7743C78.6 24.0412 79.1943 23.4469 79.9274 23.4469C80.6604 23.4469 81.2547 24.0412 81.2547 24.7743C81.2547 25.5074 80.6604 26.1017 79.9274 26.1017C79.1943 26.1017 78.6 25.5074 78.6 24.7743Z" fill="#F9CE69" fill-opacity="0.4"/>
<path d="M95.6436 28.7565V21.3231H98.7762C99.5691 21.3231 100.266 21.4789 100.868 21.7904C101.477 22.1019 101.948 22.5372 102.281 23.0965C102.62 23.6558 102.79 24.3035 102.79 25.0398C102.79 25.7761 102.62 26.4238 102.281 26.9831C101.948 27.5424 101.477 27.9778 100.868 28.2892C100.266 28.6007 99.5691 28.7565 98.7762 28.7565H95.6436ZM96.7055 27.8326H98.7125C99.3284 27.8326 99.8594 27.7158 100.305 27.4822C100.758 27.2486 101.109 26.9229 101.357 26.5052C101.604 26.0805 101.728 25.592 101.728 25.0398C101.728 24.4805 101.604 23.9921 101.357 23.5744C101.109 23.1567 100.758 22.831 100.305 22.5974C99.8594 22.3638 99.3284 22.247 98.7125 22.247H96.7055V27.8326Z" fill="#F9CE69" fill-opacity="0.4"/>
<path d="M108.038 24.5301H111.861V25.4327H108.038V24.5301ZM108.133 27.8326H112.466V28.7565H107.072V21.3231H112.317V22.247H108.133V27.8326Z" fill="#F9CE69" fill-opacity="0.4"/>
<path d="M118.882 28.7565L115.611 21.3231H116.758L119.763 28.1831H119.105L122.131 21.3231H123.193L119.933 28.7565H118.882Z" fill="#F9CE69" fill-opacity="0.4"/>
<path d="M127.762 24.5301H131.585V25.4327H127.762V24.5301ZM127.858 27.8326H132.19V28.7565H126.796V21.3231H132.042V22.247H127.858V27.8326Z" fill="#F9CE69" fill-opacity="0.4"/>
<path d="M136.564 28.7565V21.3231H137.626V27.8326H141.651V28.7565H136.564Z" fill="#F9CE69" fill-opacity="0.4"/>
<path d="M148.745 28.8414C148.179 28.8414 147.651 28.7459 147.163 28.5547C146.681 28.3636 146.264 28.0981 145.91 27.7583C145.556 27.4114 145.28 27.0079 145.081 26.5477C144.883 26.0876 144.784 25.5849 144.784 25.0398C144.784 24.4947 144.883 23.9921 145.081 23.5319C145.28 23.0717 145.556 22.6717 145.91 22.3319C146.264 21.985 146.681 21.716 147.163 21.5249C147.644 21.3337 148.172 21.2382 148.745 21.2382C149.311 21.2382 149.832 21.3337 150.306 21.5249C150.787 21.709 151.205 21.9744 151.559 22.3213C151.92 22.6611 152.196 23.0611 152.387 23.5213C152.586 23.9814 152.685 24.4876 152.685 25.0398C152.685 25.592 152.586 26.0982 152.387 26.5583C152.196 27.0185 151.92 27.422 151.559 27.7689C151.205 28.1087 150.787 28.3742 150.306 28.5653C149.832 28.7494 149.311 28.8414 148.745 28.8414ZM148.745 27.8963C149.156 27.8963 149.534 27.8255 149.881 27.684C150.235 27.5424 150.54 27.3441 150.795 27.0893C151.056 26.8273 151.258 26.5229 151.4 26.176C151.548 25.8292 151.623 25.4504 151.623 25.0398C151.623 24.6292 151.548 24.2505 151.4 23.9036C151.258 23.5567 151.056 23.2558 150.795 23.0009C150.54 22.739 150.235 22.5372 149.881 22.3957C149.534 22.2541 149.156 22.1833 148.745 22.1833C148.327 22.1833 147.942 22.2541 147.588 22.3957C147.241 22.5372 146.936 22.739 146.674 23.0009C146.412 23.2558 146.207 23.5567 146.058 23.9036C145.917 24.2505 145.846 24.6292 145.846 25.0398C145.846 25.4504 145.917 25.8292 146.058 26.176C146.207 26.5229 146.412 26.8273 146.674 27.0893C146.936 27.3441 147.241 27.5424 147.588 27.684C147.942 27.8255 148.327 27.8963 148.745 27.8963Z" fill="#F9CE69" fill-opacity="0.4"/>
<path d="M156.963 28.7565V21.3231H159.862C160.513 21.3231 161.069 21.4258 161.529 21.6311C161.989 21.8364 162.343 22.1337 162.591 22.5231C162.838 22.9124 162.962 23.3761 162.962 23.9142C162.962 24.4522 162.838 24.9159 162.591 25.3053C162.343 25.6876 161.989 25.9849 161.529 26.1973C161.069 26.4026 160.513 26.5052 159.862 26.5052H157.547L158.024 26.0061V28.7565H156.963ZM158.024 26.1123L157.547 25.5814H159.83C160.509 25.5814 161.023 25.4363 161.37 25.146C161.723 24.8557 161.9 24.4451 161.9 23.9142C161.9 23.3832 161.723 22.9726 161.37 22.6824C161.023 22.3921 160.509 22.247 159.83 22.247H157.547L158.024 21.716V26.1123Z" fill="#F9CE69" fill-opacity="0.4"/>
<path d="M168.144 24.5301H171.966V25.4327H168.144V24.5301ZM168.239 27.8326H172.572V28.7565H167.177V21.3231H172.423V22.247H168.239V27.8326Z" fill="#F9CE69" fill-opacity="0.4"/>
<path d="M176.946 28.7565V21.3231H179.845C180.496 21.3231 181.052 21.4258 181.512 21.6311C181.972 21.8364 182.326 22.1337 182.574 22.5231C182.822 22.9124 182.946 23.3761 182.946 23.9142C182.946 24.4522 182.822 24.9159 182.574 25.3053C182.326 25.6876 181.972 25.9814 181.512 26.1867C181.052 26.392 180.496 26.4946 179.845 26.4946H177.53L178.008 26.0061V28.7565H176.946ZM181.916 28.7565L180.025 26.0592H181.162L183.073 28.7565H181.916ZM178.008 26.1123L177.53 25.592H179.813C180.493 25.592 181.006 25.4469 181.353 25.1566C181.707 24.8593 181.884 24.4451 181.884 23.9142C181.884 23.3832 181.707 22.9726 181.353 22.6824C181.006 22.3921 180.493 22.247 179.813 22.247H177.53L178.008 21.716V26.1123Z" fill="#F9CE69" fill-opacity="0.4"/>
</svg>
