<svg width="61" height="61" viewBox="0 0 61 61" fill="none" xmlns="http://www.w3.org/2000/svg">
<path d="M44.1377 22.1088H41.5419C41.3285 21.3716 41.0394 20.6663 40.6766 20.007L42.5096 18.1751C42.9107 17.7728 42.9107 17.122 42.5096 16.7208L39.9052 14.1176C39.5041 13.7164 38.8543 13.7164 38.4521 14.1176L36.6202 15.9495C35.9609 15.5857 35.2556 15.2965 34.5184 15.0821V12.4863C34.5184 11.9187 34.0564 11.4578 33.4899 11.4578H29.8069C29.2404 11.4578 28.7784 11.9187 28.7784 12.4863V15.0821C28.0411 15.2955 27.3359 15.5857 26.6755 15.9495L24.8447 14.1176C24.4414 13.7164 23.7927 13.7164 23.3904 14.1176L20.7861 16.7208C20.386 17.122 20.386 17.7728 20.7872 18.1751L22.6191 20.008C22.2553 20.6663 21.9672 21.3716 21.7538 22.1088H19.158C18.5893 22.1088 18.1284 22.5708 18.1284 23.1373V26.8192C18.1284 27.3858 18.5893 27.8467 19.158 27.8467H21.7538C21.9672 28.5839 22.2563 29.2891 22.6191 29.9496L20.7861 31.7825C20.3849 32.1847 20.3849 32.8334 20.7861 33.2346L23.3894 35.84C23.7916 36.2412 24.4392 36.2412 24.8436 35.84L26.6755 34.006C27.3348 34.3698 28.039 34.6589 28.7773 34.8723V37.4692C28.7773 38.0379 29.2393 38.4966 29.8058 38.4966H33.4888C34.0553 38.4966 34.5173 38.0379 34.5173 37.4692V34.8723C35.2546 34.6589 35.9587 34.3698 36.6181 34.006L38.451 35.84C38.8533 36.2412 39.503 36.2412 39.9042 35.84L42.5085 33.2346C42.9097 32.8334 42.9097 32.1847 42.5085 31.7825L40.6745 29.9496C41.0383 29.2902 41.3274 28.585 41.5408 27.8467H44.1366C44.7053 27.8467 45.1641 27.3858 45.1641 26.8192V23.1373C45.1651 22.5697 44.7064 22.1088 44.1377 22.1088ZM31.6462 31.1754C28.2278 31.1754 25.4496 28.3951 25.4496 24.9767C25.4496 21.5593 28.2278 18.7779 31.6462 18.7779C35.0636 18.7779 37.845 21.5583 37.845 24.9767C37.845 28.3951 35.0646 31.1754 31.6462 31.1754Z" fill="#906521"/>
<path d="M32.7245 46.5892L31.4228 46.0568C31.4666 45.6492 31.4634 45.2353 31.4154 44.8224L32.7138 44.2771C32.9965 44.1577 33.132 43.8312 33.0125 43.5463L32.238 41.7038C32.1206 41.42 31.7952 41.2845 31.5082 41.405L30.2097 41.9502C29.9483 41.6259 29.656 41.3346 29.3359 41.0817L29.8683 39.779C29.9846 39.4931 29.847 39.1687 29.5632 39.0525L27.7132 38.2939C27.4283 38.1786 27.1029 38.3152 26.9866 38.6012L26.4542 39.9028C26.0477 39.8591 25.6348 39.8623 25.2208 39.9103L24.6757 38.6108C24.5572 38.327 24.2307 38.1947 23.9459 38.3142L22.1033 39.0877C21.8206 39.205 21.6862 39.5336 21.8046 39.8164L22.3498 41.117C22.0265 41.3784 21.7342 41.6718 21.4813 41.9897L20.1797 41.4573C19.8927 41.341 19.5694 41.4765 19.452 41.7624L18.7564 43.4642C18.7916 43.2273 18.7319 42.9798 18.5484 42.7973L17.1539 41.4029C17.4313 40.9004 17.65 40.3637 17.8133 39.8036H19.7881C20.2202 39.8036 20.5712 39.4526 20.5712 39.0215V36.2177C20.5712 35.7888 20.2202 35.4367 19.7881 35.4367H17.8133C17.6511 34.8766 17.4313 34.3399 17.1539 33.8384L18.5494 32.4429C18.8556 32.1367 18.8556 31.6417 18.5494 31.3376L16.5671 29.3574C16.263 29.0491 15.769 29.0491 15.4607 29.3574L14.0673 30.7508C13.5648 30.4734 13.0281 30.2547 12.468 30.0914V28.1155C12.468 27.6845 12.117 27.3335 11.687 27.3335H8.88528C8.45318 27.3335 8.10323 27.6845 8.10323 28.1155V30.0914C7.54203 30.2547 7.00538 30.4734 6.50393 30.7508L5.10946 29.3574C4.80326 29.0491 4.30822 29.0491 4.00201 29.3574L2.02075 31.3376C1.71561 31.6417 1.71561 32.1367 2.02181 32.4429L3.41628 33.8384C3.13995 34.3399 2.92017 34.8766 2.75693 35.4367H0.780993C0.348892 35.4367 0 35.7877 0 36.2177V39.0215C0 39.4526 0.349959 39.8036 0.780993 39.8036H2.75693C2.9191 40.3637 3.13887 40.9004 3.4152 41.4029L2.02075 42.7973C1.71455 43.1025 1.71455 43.5975 2.02075 43.9038L4.00094 45.8839C4.30714 46.1891 4.8022 46.1891 5.10841 45.8839L6.50286 44.4895C7.00431 44.7669 7.54098 44.9867 8.10217 45.1488V47.1248C8.10217 47.5558 8.45212 47.9057 8.88423 47.9057H11.6859C12.1159 47.9057 12.4669 47.5569 12.4669 47.1248V45.1488C13.0281 44.9867 13.5648 44.7669 14.0662 44.4895L15.4596 45.8839C15.768 46.1891 16.2619 46.1891 16.566 45.8839L18.5484 43.9038C18.606 43.8461 18.6412 43.7789 18.6764 43.7106C18.623 43.9678 18.7468 44.2345 19.0029 44.339L20.3034 44.8714C20.2597 45.2779 20.2629 45.6908 20.3109 46.1037L19.0114 46.65C18.7276 46.7684 18.5953 47.096 18.7148 47.3798L19.4872 49.2223C19.6057 49.5061 19.9321 49.6405 20.2159 49.52L21.5154 48.9759C21.7768 49.3002 22.0692 49.5904 22.3892 49.8443L21.8558 51.146C21.7416 51.4319 21.8771 51.7573 22.162 51.8747L24.012 52.6322C24.2969 52.7474 24.6212 52.6119 24.7397 52.326L25.2721 51.0233C25.6786 51.0659 26.0914 51.0627 26.5054 51.0158L27.0495 52.3142C27.1701 52.6002 27.4955 52.7325 27.7804 52.613L29.6219 51.8405C29.9046 51.72 30.0401 51.3946 29.9206 51.1076L29.3754 49.8102C29.6998 49.5488 29.991 49.2554 30.245 48.9364L31.5466 49.4688C31.8304 49.5851 32.1569 49.4485 32.2732 49.1636L33.0285 47.3147C33.147 47.0287 33.0093 46.7055 32.7245 46.5892ZM10.2851 42.3354C7.68501 42.3354 5.56931 40.2218 5.56931 37.6217C5.56931 35.0206 7.68501 32.9049 10.2851 32.9049C12.8841 32.9049 14.9998 35.0195 14.9998 37.6217C14.9998 40.2208 12.8841 42.3354 10.2851 42.3354ZM22.7627 46.7642C22.0478 45.0539 22.8523 43.0801 24.5636 42.362C26.2739 41.6451 28.2466 42.4506 28.9647 44.1609C29.6816 45.8711 28.874 47.846 27.1658 48.564C25.4534 49.2799 23.4796 48.4723 22.7627 46.7642Z" fill="#F9CE69"/>
<path d="M60.5932 51.5002C61.3465 52.6535 61.0232 54.1984 59.8688 54.9517L56.3042 57.2829C55.1519 58.035 53.606 57.7118 52.8527 56.5574L40.7486 38.0368C39.9964 36.8834 40.3197 35.3375 41.4719 34.5853L45.0386 32.2541C46.1909 31.5019 47.7369 31.8262 48.489 32.9774L60.5932 51.5002Z" fill="#D6A84C"/>
<path d="M35.6945 38.7836C29.7806 38.7836 24.2956 35.792 21.0223 30.7839C15.7496 22.7148 17.9079 11.9357 25.833 6.75691C28.5931 4.95382 31.796 4 35.097 4C41.012 4 46.497 6.99056 49.7693 11.9987C55.042 20.0678 52.8847 30.8479 44.9596 36.0267C42.1995 37.8287 38.9955 38.7836 35.6945 38.7836ZM35.096 8.41811C32.6559 8.41811 30.2874 9.12227 28.2485 10.4548C22.3623 14.3011 20.779 22.3382 24.7191 28.3684C27.1731 32.1239 31.2764 34.3655 35.6945 34.3655C38.1356 34.3655 40.5031 33.6614 42.543 32.3288C48.4292 28.4826 50.0125 20.4465 46.0713 14.4152C43.6174 10.6597 39.5151 8.41811 35.096 8.41811Z" fill="#F9CE69"/>
</svg>
