<svg width="309" height="309" viewBox="0 0 309 309" fill="none" xmlns="http://www.w3.org/2000/svg">
<path d="M42.9298 48.7272C44.0175 46.1018 46.1018 44.0175 48.7272 42.9298L150.401 0.815759C153.027 -0.27192 155.973 -0.27192 158.599 0.815759L260.273 42.9298C262.898 44.0175 264.982 46.1018 266.07 48.7272L308.184 150.401C309.272 153.027 309.272 155.973 308.184 158.599L266.07 260.273C264.982 262.898 262.898 264.982 260.273 266.07L158.599 308.184C155.973 309.272 153.027 309.272 150.401 308.184L48.7272 266.07C46.1018 264.982 44.0175 262.898 42.9298 260.273L0.815759 158.599C-0.27192 155.973 -0.27192 153.027 0.815759 150.401L42.9298 48.7272Z" fill="white"/>
</svg>
