<svg width="301" height="303" viewBox="0 0 301 303" fill="none" xmlns="http://www.w3.org/2000/svg">
<path d="M299.44 96.0219C301.463 90.2032 298.752 83.7972 293.166 81.1991L244.697 58.6553C242.185 57.4866 240.154 55.4843 238.95 52.9883L216.668 6.79624C213.987 1.23721 207.526 -1.38117 201.731 0.742666L153.517 18.4124C150.911 19.3676 148.054 19.3897 145.434 18.4749L96.952 1.55265C91.1249 -0.481262 84.7053 2.23654 82.11 7.83616L60.5431 54.3682C59.3778 56.8824 57.3783 58.9159 54.884 60.1232L6.76545 83.4151C1.22033 86.0993 -1.39145 92.5463 0.722033 98.3331L19.0399 148.487C19.9891 151.086 20.0111 153.933 19.1021 156.547L1.56016 206.978C-0.463827 212.797 2.24727 219.203 7.83333 221.801L56.3025 244.345C58.8153 245.513 60.8461 247.516 62.0501 250.012L84.3317 296.204C87.0132 301.763 93.4742 304.381 99.2693 302.257L147.484 284.587C150.09 283.632 152.947 283.61 155.568 284.525L204.047 301.447C209.874 303.481 216.294 300.763 218.89 295.164L240.456 248.633C241.622 246.119 243.621 244.086 246.115 242.879L294.234 219.587C299.78 216.903 302.391 210.456 300.278 204.669L281.96 154.515C281.011 151.916 280.989 149.069 281.898 146.456L299.44 96.0219Z" fill="white"/>
</svg>
